<svg width="419" height="122" viewBox="0 0 419 122" fill="none" xmlns="http://www.w3.org/2000/svg">
<path d="M417.55 7.39751V119.065H402.966V7.39751H417.55Z" stroke="url(#paint0_linear_1_5)" stroke-width="1.1"/>
<path d="M363.39 7.39751L363.506 7.79498L395.463 118.361L395.666 119.065H380.442L380.329 118.665L375.158 100.46H337.399L332.396 118.66L332.285 119.065H317.021L317.218 118.366L348.245 7.79888L348.357 7.39751H363.39ZM342.817 80.8965H369.562L356.009 33.2549L342.817 80.8965Z" stroke="url(#paint1_linear_1_5)" stroke-width="1.1"/>
<path d="M272.855 0.606445V68.6455L295.18 34.7383L295.343 34.4912H315.816L315.245 35.3467L289.36 74.0986L316.903 118.224L317.429 119.064H297.361L297.2 118.804L279.092 89.4668L272.855 98.8027V119.064H259.243V0.606445H272.855Z" stroke="url(#paint2_linear_1_5)" stroke-width="1.1"/>
<path d="M218.705 33.0055C220.745 33.0055 222.866 33.2215 225.067 33.652H225.066C227.284 34.0332 229.459 34.557 231.592 35.2233C233.724 35.8891 235.772 36.6746 237.735 37.5788H237.736C239.705 38.4381 241.453 39.3726 242.977 40.3834L243.298 40.5963L243.208 40.9704L239.276 57.2409L239.097 57.9811L238.451 57.5788C235.297 55.6168 232.148 54.0788 229.005 52.9616L228.996 52.9586C225.901 51.8025 222.711 51.2243 219.424 51.2243C217.13 51.2243 215.213 51.5256 213.657 52.109L213.646 52.1129C212.101 52.6575 210.864 53.3977 209.917 54.3219L209.907 54.3317C208.955 55.2169 208.256 56.2518 207.807 57.442L207.808 57.443C207.381 58.6056 207.166 59.8382 207.166 61.1442C207.166 62.0888 207.273 62.93 207.48 63.6725C207.71 64.3952 208.063 65.0278 208.539 65.5768C209.034 66.0707 209.674 66.4748 210.474 66.779C211.304 67.0369 212.339 67.1725 213.591 67.1725C214.738 67.1725 215.959 67.0586 217.256 66.8278C218.577 66.5925 219.955 66.3569 221.387 66.1217C222.832 65.8373 224.321 65.5774 225.849 65.3405L225.85 65.3395C227.428 65.0994 229.034 64.9801 230.668 64.9801C233.728 64.9801 236.427 65.584 238.746 66.8122H238.745C241.079 68.0331 243.005 69.7441 244.52 71.9381C246.028 74.1214 247.152 76.6824 247.898 79.6129C248.644 82.5398 249.014 85.7221 249.014 89.1569C249.014 93.5938 248.401 97.7305 247.17 101.563C245.937 105.4 244.099 108.744 241.652 111.587L241.649 111.59C239.197 114.391 236.141 116.582 232.494 118.169L232.495 118.17C228.862 119.762 224.67 120.55 219.931 120.55C217.018 120.55 214.199 120.24 211.48 119.617V119.616C208.776 119.044 206.196 118.258 203.744 117.256L203.736 117.252C201.286 116.203 198.976 114.987 196.808 113.602L196.805 113.6C194.67 112.218 192.717 110.739 190.947 109.163L190.675 108.921L190.793 108.575L196.204 92.7291L196.489 91.8913L197.114 92.5182C200.448 95.8654 204.105 98.3202 208.086 99.8932C212.081 101.472 216.169 102.26 220.353 102.26C223.19 102.26 225.521 101.933 227.361 101.299C229.228 100.656 230.693 99.8397 231.78 98.8639C232.875 97.8804 233.637 96.7752 234.082 95.5485C234.54 94.2865 234.767 93.0057 234.767 91.7038C234.767 89.8251 234.275 88.2455 233.311 86.9372L233.306 86.9313C232.43 85.7089 230.94 85.0388 228.681 85.0387C227.621 85.0387 226.472 85.1519 225.231 85.3825C223.966 85.6177 222.629 85.8773 221.222 86.1598L221.215 86.1608L221.207 86.1627C219.823 86.399 218.369 86.6336 216.845 86.8698L216.846 86.8708C215.324 87.1111 213.773 87.2311 212.195 87.2311C208.748 87.2311 205.769 86.6064 203.279 85.3317L203.277 85.3307C200.834 84.0651 198.835 82.3327 197.289 80.1364C195.75 77.9492 194.638 75.3827 193.948 72.4469V72.445C193.261 69.4761 192.919 66.298 192.919 62.9127C192.919 58.6169 193.518 54.643 194.722 50.9967C195.925 47.3547 197.647 44.2029 199.894 41.5504C202.143 38.8481 204.857 36.7469 208.029 35.2506L208.031 35.2497C211.24 33.7501 214.801 33.0055 218.705 33.0055Z" stroke="url(#paint3_linear_1_5)" stroke-width="1.1"/>
<path d="M151.071 33.0055C155.924 33.0055 160.305 34.1597 164.201 36.4772C168.107 38.7844 171.421 41.9306 174.14 45.9069H174.139C176.884 49.8778 178.978 54.5091 180.429 59.7936L180.698 60.7887C181.999 65.7899 182.648 71.1206 182.648 76.778C182.648 82.811 181.909 88.4718 180.429 93.7584L180.43 93.7594C178.979 99.0445 176.884 103.676 174.139 107.647C171.42 111.623 168.108 114.769 164.202 117.076L164.203 117.077C160.307 119.395 155.925 120.55 151.071 120.55C146.217 120.55 141.821 119.395 137.898 117.078L137.897 117.077C134.02 114.77 130.708 111.624 127.961 107.65L127.96 107.648C125.244 103.678 123.149 99.0466 121.67 93.7624L121.669 93.7594C120.217 88.4727 119.494 82.8113 119.494 76.778C119.494 70.7445 120.217 65.0824 121.669 59.7956L121.67 59.7936C123.149 54.5093 125.244 49.8774 127.96 45.9069L127.961 45.9049C130.708 41.9306 134.02 38.7852 137.897 36.4782L137.898 36.4772C141.821 34.16 146.217 33.0055 151.071 33.0055ZM151.071 52.3561C148.346 52.3561 145.925 53.0165 143.792 54.3268L143.788 54.3297C141.665 55.6052 139.847 57.3614 138.339 59.611V59.612C136.855 61.819 135.709 64.4033 134.905 67.3717C134.129 70.34 133.74 73.4749 133.74 76.778C133.74 80.0801 134.129 83.2139 134.904 86.1813L135.058 86.7252C135.852 89.4236 136.946 91.8284 138.339 93.944C139.846 96.145 141.664 97.9033 143.79 99.2272C145.923 100.491 148.345 101.129 151.071 101.129C153.799 101.129 156.208 100.49 158.312 99.2262C160.466 97.902 162.282 96.1434 163.76 93.944L164.04 93.5172C165.415 91.3644 166.467 88.9221 167.194 86.1862L167.195 86.1842C167.999 83.2161 168.402 80.0811 168.402 76.778C168.402 73.4748 167.999 70.3398 167.195 67.3717L167.194 67.3668C166.419 64.4017 165.273 61.8206 163.763 59.6159L163.758 59.6071C162.278 57.3611 160.464 55.6057 158.314 54.3307L158.304 54.3249C156.201 53.0163 153.796 52.3561 151.071 52.3561Z" stroke="url(#paint4_linear_1_5)" stroke-width="1.1"/>
<path d="M110.566 32.32L114.243 51.4909L114.35 52.0446L113.793 52.1364C109.059 52.924 104.903 54.7053 101.316 57.4762L101.314 57.4782C97.7898 60.1753 94.8992 63.9991 92.6525 68.9762V119.064H79.0402V34.4909H92.6525V45.5299C95.1446 42.5612 97.7617 39.9595 100.505 37.7272C103.608 35.2019 106.709 33.2625 109.807 31.9186L110.437 31.6461L110.566 32.32Z" stroke="url(#paint5_linear_1_5)" stroke-width="1.1"/>
<path d="M36.7695 7.39751C41.9078 7.39757 46.3907 8.32898 50.2012 10.2129C54.0048 12.0936 57.1603 14.8194 59.6631 18.3809L60.124 19.0479C62.3911 22.4305 64.0803 26.4959 65.2021 31.2325C66.4262 36.2819 67.0361 41.9628 67.0361 48.2696C67.0361 54.2011 66.4408 59.6914 65.2461 64.7374C64.1246 69.474 62.4359 73.6383 60.1748 77.2227L59.7148 77.9317C57.2442 81.6336 54.1084 84.5475 50.3105 86.6661L50.3057 86.669C46.4905 88.7488 42 89.7784 36.8535 89.7784H36.8516L15.8877 89.7081V119.065H1.3877V7.39751H36.7695ZM15.8877 69.2247H37.1074C39.5684 69.2246 41.6872 68.7443 43.4814 67.8047C45.3195 66.8096 46.8472 65.4309 48.0674 63.6612C49.3183 61.8406 50.2523 59.6429 50.8594 57.0567L50.8604 57.0538C51.4967 54.4146 51.8174 51.4875 51.8174 48.2696C51.8174 41.7767 50.5458 36.8107 48.0713 33.3067L48.0674 33.3018C45.6489 29.7942 42.0275 28.0216 37.1074 28.0215H15.8877V69.2247Z" stroke="url(#paint6_linear_1_5)" stroke-width="1.1"/>
<defs>
<linearGradient id="paint0_linear_1_5" x1="403.515" y1="63.2309" x2="417" y2="63.2309" gradientUnits="userSpaceOnUse">
<stop offset="0.384615" stop-color="white"/>
<stop offset="0.677885" stop-color="#E9E9E9"/>
<stop offset="0.841346" stop-color="#999999"/>
</linearGradient>
<linearGradient id="paint1_linear_1_5" x1="317.747" y1="63.2309" x2="394.934" y2="63.2309" gradientUnits="userSpaceOnUse">
<stop offset="0.384615" stop-color="white"/>
<stop offset="0.677885" stop-color="#E9E9E9"/>
<stop offset="0.841346" stop-color="#999999"/>
</linearGradient>
<linearGradient id="paint2_linear_1_5" x1="259.793" y1="59.8354" x2="316.436" y2="59.8354" gradientUnits="userSpaceOnUse">
<stop offset="0.384615" stop-color="white"/>
<stop offset="0.677885" stop-color="#E9E9E9"/>
<stop offset="0.841346" stop-color="#999999"/>
</linearGradient>
<linearGradient id="paint3_linear_1_5" x1="191.313" y1="76.7777" x2="248.464" y2="76.7777" gradientUnits="userSpaceOnUse">
<stop offset="0.384615" stop-color="white"/>
<stop offset="0.677885" stop-color="#E9E9E9"/>
<stop offset="0.841346" stop-color="#999999"/>
</linearGradient>
<linearGradient id="paint4_linear_1_5" x1="120.044" y1="76.7777" x2="182.098" y2="76.7777" gradientUnits="userSpaceOnUse">
<stop offset="0.384615" stop-color="white"/>
<stop offset="0.677885" stop-color="#E9E9E9"/>
<stop offset="0.841346" stop-color="#999999"/>
</linearGradient>
<linearGradient id="paint5_linear_1_5" x1="79.59" y1="75.469" x2="113.703" y2="75.469" gradientUnits="userSpaceOnUse">
<stop offset="0.384615" stop-color="white"/>
<stop offset="0.677885" stop-color="#E9E9E9"/>
<stop offset="0.841346" stop-color="#999999"/>
</linearGradient>
<linearGradient id="paint6_linear_1_5" x1="1.9375" y1="63.2309" x2="66.4859" y2="63.2309" gradientUnits="userSpaceOnUse">
<stop offset="0.384615" stop-color="white"/>
<stop offset="0.677885" stop-color="#E9E9E9"/>
<stop offset="0.841346" stop-color="#999999"/>
</linearGradient>
</defs>
</svg>
